<?xml version="1.0" standalone="no"?>
<!DOCTYPE svg PUBLIC "-//W3C//DTD SVG 20010904//EN"
 "http://www.w3.org/TR/2001/REC-SVG-20010904/DTD/svg10.dtd">
<svg version="1.0" xmlns="http://www.w3.org/2000/svg"
 width="857.000000pt" height="773.000000pt" viewBox="0 0 857.000000 773.000000"
 preserveAspectRatio="xMidYMid meet">
<metadata>
Created by potrace 1.16, written by Peter Selinger 2001-2019
</metadata>
<g transform="translate(0.000000,773.000000) scale(0.100000,-0.100000)"
fill="#000000" stroke="none">
<path d="M3243 7656 c-4 -5 0 -6 7 -1 9 5 11 4 6 -3 -4 -7 -17 -12 -29 -12
-36 0 -67 -12 -61 -22 4 -6 -4 -5 -16 2 -13 7 -20 7 -16 2 3 -6 -8 -21 -26
-33 -18 -12 -44 -33 -57 -46 -12 -14 -29 -22 -36 -19 -8 3 -11 -2 -8 -14 5
-19 -32 -64 -46 -56 -4 3 -6 -5 -4 -18 3 -16 -4 -32 -21 -49 -14 -14 -26 -31
-26 -37 0 -5 -4 -10 -10 -10 -5 0 -10 -18 -10 -41 0 -24 -4 -38 -10 -34 -5 3
-10 1 -10 -5 0 -6 -4 -8 -10 -5 -6 4 -7 -1 -3 -11 5 -12 3 -15 -6 -9 -10 6
-11 3 -2 -13 15 -28 14 -35 -5 -28 -8 3 -12 2 -9 -4 7 -12 -5 -81 -14 -76 -6
4 -13 -72 -15 -161 -1 -27 -6 -43 -13 -43 -7 0 -13 -7 -13 -15 0 -8 6 -15 13
-15 8 0 9 -3 1 -8 -6 -4 -10 -19 -10 -34 1 -16 -1 -28 -5 -28 -3 0 -7 -40 -8
-90 -1 -49 2 -90 6 -90 4 0 7 -30 5 -67 -1 -45 2 -69 10 -75 8 -5 9 -11 3 -15
-15 -11 -17 -33 -5 -47 5 -7 12 -32 15 -56 3 -24 8 -47 12 -53 3 -5 0 -8 -6
-6 -7 3 -12 8 -12 12 0 3 -11 19 -25 34 -13 15 -22 33 -19 40 3 9 0 11 -7 7
-8 -5 -9 -2 -5 9 3 9 1 19 -5 23 -6 4 -8 3 -4 -4 3 -6 2 -13 -3 -16 -11 -7
-24 22 -16 35 4 5 -1 6 -9 3 -8 -3 -19 3 -26 15 -6 12 -18 21 -26 21 -10 0
-14 6 -10 15 3 8 2 14 -2 13 -13 -2 -42 14 -42 24 0 5 6 6 13 2 8 -5 8 -3 -2
9 -7 9 -17 14 -22 11 -20 -12 -135 69 -123 87 3 5 -3 6 -12 2 -10 -4 -15 -2
-11 3 3 6 -4 11 -16 11 -31 3 -67 24 -60 36 4 7 -1 8 -12 3 -11 -4 -25 0 -36
10 -10 9 -22 13 -28 10 -12 -8 -91 16 -91 28 0 4 -7 6 -15 3 -8 -4 -17 -2 -20
3 -5 8 -68 18 -142 23 -17 1 -29 6 -25 11 3 5 -5 6 -19 1 -13 -4 -67 -8 -119
-10 -144 -3 -208 -13 -215 -36 -4 -13 -16 -19 -36 -19 -17 0 -28 -4 -25 -8 2
-4 -4 -9 -15 -9 -11 -1 -17 1 -15 5 3 4 -3 8 -13 8 -12 0 -17 -6 -13 -18 3
-12 -1 -18 -11 -18 -8 0 -23 -3 -33 -7 -13 -5 -15 -3 -9 8 5 8 5 11 -1 6 -5
-5 -10 -13 -10 -18 -1 -5 -2 -14 -3 -19 0 -6 -5 -9 -9 -8 -13 5 -59 -46 -54
-60 2 -7 -2 -10 -12 -6 -11 4 -16 1 -16 -11 0 -11 -5 -15 -14 -12 -10 4 -13 1
-9 -9 3 -7 0 -14 -7 -14 -6 0 -9 -4 -6 -9 3 -4 -3 -16 -14 -26 -11 -10 -17
-22 -14 -26 3 -5 1 -9 -3 -9 -12 0 -42 -80 -47 -126 -1 -11 -5 -25 -9 -30 -11
-19 -25 -94 -16 -88 5 3 9 -2 9 -11 0 -11 -5 -15 -16 -11 -10 4 -13 2 -8 -6 4
-6 7 -56 6 -109 -1 -54 3 -101 8 -104 7 -4 7 -13 0 -24 -5 -10 -6 -21 -3 -25
4 -3 8 -16 9 -29 6 -54 23 -110 35 -118 11 -7 11 -9 1 -9 -10 0 -9 -7 2 -29 9
-16 13 -31 9 -34 -10 -11 19 -67 34 -67 8 0 12 -4 9 -9 -9 -15 5 -42 18 -34 6
4 4 -2 -4 -12 -8 -10 -10 -16 -4 -12 14 8 68 -89 60 -109 -3 -7 0 -16 6 -20 7
-5 8 -2 3 6 -6 9 -4 11 4 6 7 -5 10 -15 7 -23 -3 -8 -1 -11 5 -8 13 8 39 -13
39 -32 0 -8 13 -28 29 -46 23 -24 27 -34 19 -44 -8 -10 -7 -12 4 -8 16 6 48
-33 48 -59 0 -10 6 -13 15 -10 8 4 15 1 15 -5 0 -6 -3 -11 -7 -11 -14 0 -148
53 -153 61 -5 7 -62 18 -125 25 -16 1 -59 7 -95 13 -36 6 -104 10 -152 10 -48
-1 -92 2 -99 7 -7 4 -9 3 -6 -3 5 -7 -15 -10 -57 -9 -50 1 -62 -2 -58 -13 4
-11 1 -11 -16 -2 -12 7 -22 8 -22 3 0 -5 -19 -9 -42 -9 -23 0 -44 -5 -46 -12
-2 -6 -8 -9 -13 -5 -5 3 -9 0 -9 -6 0 -6 -4 -8 -10 -5 -5 3 -10 2 -10 -2 0 -8
-8 -10 -64 -16 -13 -1 -22 -6 -18 -11 3 -5 -4 -7 -16 -4 -13 4 -26 0 -34 -11
-12 -14 -11 -15 5 -2 9 7 17 9 17 3 0 -5 -13 -15 -30 -22 -17 -7 -27 -17 -23
-24 3 -6 3 -8 -2 -4 -5 5 -23 -3 -40 -17 -18 -13 -35 -21 -39 -18 -3 3 -8 -2
-12 -11 -3 -9 -10 -13 -15 -10 -5 3 -6 -2 -3 -10 3 -9 -3 -17 -16 -21 -16 -5
-18 -10 -10 -19 8 -10 5 -12 -15 -8 -15 2 -25 0 -25 -7 0 -7 -4 -10 -9 -6 -5
3 -13 0 -17 -6 -4 -8 -3 -9 4 -5 7 4 12 4 12 0 0 -9 -40 -74 -46 -74 -3 0 -2
5 2 12 4 7 3 8 -4 4 -6 -4 -9 -12 -6 -19 2 -7 -7 -24 -21 -39 -14 -15 -25 -31
-25 -36 0 -5 -7 -15 -15 -22 -8 -6 -13 -17 -12 -23 1 -6 -4 -12 -10 -13 -7 -1
-15 -2 -18 -3 -3 0 -1 -11 6 -23 9 -17 9 -20 -2 -16 -14 6 -17 -2 -23 -78 -2
-23 -7 -47 -11 -55 -12 -18 -15 -208 -4 -215 4 -2 4 -15 -1 -28 -10 -26 -5
-37 14 -30 7 3 13 -2 13 -10 0 -8 -4 -13 -9 -10 -5 3 3 -12 17 -32 14 -21 23
-44 21 -51 -3 -7 0 -15 6 -19 7 -4 8 -3 4 4 -4 7 -2 12 3 12 11 0 15 -13 12
-37 -1 -7 3 -13 9 -13 5 0 10 -7 10 -15 0 -9 7 -18 16 -22 8 -3 13 -12 10 -20
-4 -8 -1 -11 5 -7 6 4 15 0 20 -7 13 -20 11 -31 -3 -23 -7 4 -2 -5 11 -19 25
-27 37 -35 26 -17 -13 21 13 9 28 -13 8 -12 34 -35 59 -51 24 -15 50 -36 56
-47 12 -19 12 -20 -15 -3 l-28 16 25 -20 c13 -11 28 -18 31 -16 10 6 62 -18
72 -33 5 -8 13 -11 18 -7 5 3 15 1 22 -4 7 -6 31 -16 54 -22 23 -7 41 -16 39
-19 -2 -3 10 -6 27 -7 18 0 43 -3 57 -7 14 -3 46 -9 72 -13 26 -3 46 -10 44
-13 -3 -4 11 -5 31 -3 21 3 33 1 30 -5 -3 -5 6 -8 22 -5 16 2 32 -1 36 -9 6
-8 4 -10 -5 -4 -7 4 -15 4 -19 -1 -6 -9 -116 -64 -127 -64 -3 0 -2 5 2 12 5 7
3 8 -5 4 -7 -5 -10 -10 -7 -13 3 -3 -16 -17 -42 -30 -26 -14 -55 -34 -64 -45
-10 -11 -18 -17 -18 -13 0 4 -6 3 -13 -3 -6 -6 -16 -11 -22 -11 -5 -1 -10 -7
-10 -13 0 -7 -10 -17 -22 -23 -13 -5 -23 -16 -23 -23 0 -8 -9 -12 -22 -10 -20
3 -23 -1 -20 -27 2 -16 1 -27 -3 -23 -4 4 -16 -4 -27 -17 -11 -14 -26 -25 -35
-25 -9 0 -13 -6 -9 -15 3 -9 0 -15 -9 -15 -8 0 -17 -11 -21 -25 -3 -14 -10
-22 -15 -19 -5 3 -9 -5 -9 -17 0 -16 -5 -20 -20 -16 -11 3 -23 0 -27 -5 -3 -7
-1 -8 5 -4 17 10 15 -9 -1 -23 -8 -6 -18 -7 -22 -3 -5 4 -5 2 -2 -4 4 -6 -5
-24 -18 -40 -14 -16 -25 -33 -25 -37 0 -5 -4 -6 -8 -3 -5 3 -8 -5 -8 -17 1
-15 -5 -22 -16 -21 -11 1 -14 -4 -11 -14 4 -10 2 -13 -5 -8 -8 5 -10 1 -5 -10
4 -11 3 -15 -5 -10 -6 3 -14 1 -18 -5 -5 -8 -3 -9 6 -4 10 6 12 4 7 -9 -4 -10
-7 -20 -7 -22 0 -3 -4 -2 -10 1 -6 4 -10 -5 -10 -19 0 -14 -5 -26 -11 -26 -5
0 -7 -5 -3 -12 5 -7 2 -9 -9 -5 -11 4 -14 2 -10 -9 3 -8 -3 -26 -13 -42 -11
-15 -22 -36 -25 -47 -3 -11 -11 -19 -18 -17 -9 2 -9 -3 -3 -14 11 -20 4 -56
-9 -48 -5 3 -9 -5 -9 -17 0 -13 -9 -41 -20 -63 -10 -23 -23 -59 -28 -81 -5
-22 -13 -39 -18 -38 -5 1 -10 -7 -10 -17 0 -10 4 -16 9 -13 5 3 3 -5 -4 -18
-9 -17 -13 -67 -13 -169 0 -140 4 -176 21 -203 4 -6 8 -18 10 -26 1 -8 7 -17
14 -21 6 -4 8 -13 5 -19 -4 -6 -3 -11 3 -11 9 0 51 -61 51 -74 0 -4 -6 -4 -12
0 -8 4 -10 3 -5 -2 5 -5 14 -9 20 -9 5 0 12 -6 15 -14 3 -9 0 -11 -8 -6 -9 5
-11 4 -6 -4 4 -6 11 -9 15 -6 5 2 22 -13 39 -35 18 -21 41 -41 52 -45 11 -3
20 -11 20 -16 0 -6 -6 -7 -12 -3 -9 5 -9 2 1 -9 15 -19 26 -23 15 -6 -4 7 -1
10 7 7 8 -3 13 -11 11 -17 -1 -7 2 -10 7 -7 5 4 12 2 16 -3 3 -6 12 -8 19 -5
7 3 20 -1 27 -8 57 -55 331 -72 504 -32 44 10 82 21 85 25 3 3 15 9 28 13 12
3 31 9 42 12 12 3 20 1 20 -6 0 -6 -4 -9 -9 -5 -5 3 -18 -6 -29 -20 -11 -13
-22 -21 -26 -17 -4 3 -4 -1 -1 -11 7 -18 -28 -71 -39 -59 -4 3 -4 -2 0 -12 6
-15 4 -17 -6 -11 -10 6 -12 4 -7 -8 3 -8 -1 -21 -8 -27 -8 -7 -12 -16 -9 -21
3 -5 -2 -9 -11 -9 -9 0 -13 -4 -10 -10 3 -5 3 -10 -2 -10 -13 0 -32 -49 -28
-71 3 -15 0 -19 -11 -15 -9 3 -12 2 -9 -5 10 -16 -4 -61 -16 -53 -8 4 -8 0 -2
-12 10 -20 10 -26 -2 -61 -4 -13 -10 -21 -14 -19 -3 2 -7 -15 -8 -37 -2 -23
-5 -69 -6 -103 -2 -33 -8 -67 -12 -74 -5 -9 -4 -11 3 -6 7 4 12 1 13 -6 2 -50
11 -103 24 -143 9 -25 13 -50 10 -55 -4 -6 -1 -9 7 -8 8 2 13 -6 12 -19 0 -12
3 -20 7 -18 3 3 13 -10 20 -28 7 -17 19 -38 27 -46 7 -7 11 -20 8 -28 -4 -9
-2 -11 6 -7 8 5 9 2 5 -10 -5 -11 -3 -15 5 -10 8 5 9 2 5 -10 -4 -9 -3 -15 2
-12 10 7 33 -36 29 -55 -2 -9 4 -13 15 -11 13 2 17 -2 15 -15 -2 -10 2 -17 7
-16 6 1 22 -8 35 -19 14 -11 19 -16 11 -12 -9 5 -12 3 -7 -5 4 -6 11 -9 15 -6
5 2 25 -11 45 -30 21 -19 48 -38 62 -41 13 -3 22 -10 19 -14 -3 -5 5 -6 17 -2
14 3 19 1 14 -6 -4 -7 -2 -10 7 -7 15 6 82 -19 92 -35 4 -6 11 -8 16 -5 5 4 9
2 9 -4 0 -5 21 -13 48 -17 26 -3 52 -11 59 -16 23 -18 244 -7 353 18 69 15 75
17 102 28 9 4 23 4 30 0 7 -4 10 -3 6 1 -9 10 92 47 109 41 7 -3 15 0 19 6 5
7 2 8 -6 3 -9 -6 -11 -4 -5 4 4 7 16 10 27 8 11 -3 18 -3 15 0 -7 6 114 69
126 65 5 -1 6 1 3 6 -7 12 42 34 56 26 7 -4 8 -2 4 4 -3 6 2 16 13 21 26 14
34 14 25 -1 -4 -8 -3 -10 2 -5 5 5 9 14 9 20 0 6 9 16 20 22 11 5 36 21 55 35
19 14 37 24 40 23 3 -1 7 1 10 4 3 4 -2 2 -10 -2 -13 -8 -13 -7 -1 8 16 20 36
23 25 5 -5 -9 -3 -9 9 1 9 7 15 17 12 21 -7 11 43 42 55 35 6 -4 7 1 3 11 -4
12 -2 15 8 12 8 -2 15 -17 17 -32 3 -20 0 -26 -8 -21 -9 6 -9 2 0 -15 7 -12
10 -33 7 -46 -2 -14 0 -27 4 -30 5 -3 4 -15 -2 -26 -6 -12 -11 -45 -11 -74 0
-30 -4 -52 -8 -49 -10 6 14 -162 25 -173 2 -3 0 -13 -6 -23 -7 -14 -7 -19 2
-17 12 3 18 -15 24 -65 2 -15 13 -36 24 -46 12 -10 21 -22 21 -27 0 -5 9 -20
20 -34 22 -29 26 -45 8 -34 -7 4 2 -9 21 -29 18 -19 38 -34 45 -32 6 3 29 -12
51 -32 22 -20 31 -30 20 -22 -18 13 -19 13 -6 -3 7 -10 17 -15 22 -13 8 6 121
-50 114 -56 -2 -2 8 -5 22 -6 14 0 28 -5 32 -11 8 -12 56 -21 151 -27 41 -3
94 -7 116 -10 45 -6 162 17 207 42 15 8 35 12 43 9 10 -4 12 -2 8 6 -5 7 0 9
14 6 12 -4 25 -1 29 4 4 7 1 8 -7 3 -8 -5 -11 -4 -6 3 9 15 74 35 87 26 8 -5
9 -3 4 6 -6 10 -4 12 9 7 10 -4 15 -3 11 3 -3 5 7 16 22 24 15 8 42 28 58 45
32 33 57 43 34 13 -13 -15 -12 -16 3 -4 10 8 16 19 15 24 -1 6 4 13 12 16 10
3 11 0 5 -9 -7 -12 -5 -12 9 0 20 16 22 25 4 16 -6 -4 -3 0 8 9 11 8 32 28 47
43 16 15 28 24 28 19 0 -6 13 3 30 19 16 15 27 32 24 37 -4 6 7 24 23 41 30
32 94 132 97 152 2 9 25 40 54 71 13 14 42 9 42 -8 0 -6 -8 -4 -17 3 -14 12
-14 10 1 -13 17 -25 36 -42 21 -18 -3 6 -3 10 2 10 4 0 14 -13 21 -30 8 -16
19 -30 26 -30 20 0 49 -37 40 -52 -5 -9 -2 -8 11 2 17 14 18 13 13 -7 -6 -21
5 -37 24 -38 13 0 77 -82 70 -89 -3 -4 1 -4 9 -1 9 3 23 -4 35 -17 l19 -23
-25 20 -25 20 18 -22 c11 -13 25 -19 35 -16 10 4 13 2 8 -5 -5 -8 -2 -10 8 -6
10 4 16 1 16 -8 0 -7 14 -19 31 -25 17 -7 28 -16 25 -22 -4 -5 -1 -13 5 -17 8
-4 9 -3 5 4 -4 7 -1 12 8 12 19 0 30 -17 14 -22 -7 -3 -5 -7 6 -11 10 -4 15
-3 11 3 -9 15 2 12 50 -14 25 -13 42 -26 40 -30 -3 -3 -2 -4 1 -2 3 3 31 -8
63 -24 31 -15 66 -31 79 -35 12 -3 20 -10 18 -14 -3 -3 5 -7 17 -7 65 -1 98
-5 93 -12 -6 -11 248 -12 284 -2 18 5 33 4 40 -3 10 -9 11 -9 7 -1 -6 11 27
22 80 27 11 1 19 6 15 11 -3 5 5 7 16 4 12 -4 25 -1 29 4 4 7 1 8 -7 3 -9 -6
-11 -4 -6 4 5 7 14 10 22 7 8 -3 11 0 7 10 -3 9 0 14 8 12 8 -2 13 3 11 11 -2
9 4 12 17 8 13 -3 18 0 15 7 -5 14 35 39 57 34 9 -2 13 4 11 16 -3 14 1 17 13
12 9 -3 14 -2 11 3 -6 10 48 64 56 55 3 -3 5 3 5 13 -1 9 3 18 10 18 6 0 15 4
20 9 5 5 3 6 -4 2 -9 -5 -13 0 -13 15 0 17 3 19 14 10 11 -9 16 -9 22 0 5 8 3
9 -6 4 -10 -6 -11 -4 -5 11 4 10 10 30 13 44 6 33 22 52 37 46 7 -2 12 1 11 7
-2 24 26 117 34 112 5 -3 12 0 16 6 4 8 3 9 -4 5 -8 -5 -10 2 -7 21 3 15 7 37
9 48 2 11 6 27 9 35 3 8 11 52 18 97 7 45 15 80 18 79 3 -2 7 35 9 83 2 47 7
88 12 89 15 5 12 60 -2 65 -10 4 -10 6 0 6 15 1 17 87 2 96 -15 9 -12 25 5 25
9 0 18 -7 21 -15 3 -8 25 -17 50 -21 24 -3 48 -12 54 -19 6 -7 20 -10 32 -7
16 4 19 2 13 -8 -5 -9 -4 -11 4 -6 14 9 123 -23 116 -34 -3 -5 4 -6 14 -3 11
3 44 0 73 -7 29 -6 64 -14 78 -16 13 -3 30 -10 36 -15 7 -5 35 -12 63 -16 30
-3 48 -10 44 -16 -4 -6 -1 -7 8 -1 8 4 101 7 207 6 196 -3 387 11 409 30 7 6
24 8 38 6 15 -3 22 -1 18 5 -4 6 2 8 15 5 12 -4 20 -3 17 2 -6 10 73 23 87 14
6 -4 8 -3 5 3 -9 15 29 23 44 9 9 -8 10 -8 5 2 -7 11 6 16 41 15 7 -1 10 4 6
10 -4 6 2 8 15 5 12 -4 20 -3 17 2 -3 4 2 11 11 14 22 9 26 8 18 -6 -4 -7 -3
-8 5 -4 6 4 9 11 6 16 -3 5 5 12 17 15 13 4 31 14 40 22 10 9 24 13 33 9 11
-4 14 -2 9 6 -5 8 -2 9 9 5 9 -3 16 -2 14 4 -3 13 100 72 113 64 6 -3 7 1 4 9
-3 9 -2 16 3 16 5 0 26 16 47 36 22 21 44 33 52 30 9 -3 12 -1 9 4 -4 6 4 23
17 39 13 15 30 38 38 50 8 11 21 21 28 21 9 0 12 6 8 16 -5 13 -2 15 13 11 13
-3 18 -1 15 8 -6 14 50 119 59 113 3 -2 9 0 13 5 4 4 2 7 -4 7 -6 0 -9 7 -6
15 4 8 10 12 15 9 5 -3 6 1 3 9 -3 8 2 21 11 30 23 23 56 139 60 213 2 35 6
67 8 71 2 5 3 45 3 90 -1 52 3 79 9 75 5 -3 4 1 -2 10 -7 8 -11 29 -9 46 2 19
-2 36 -10 43 -10 8 -11 16 -4 30 8 15 7 17 -4 13 -11 -4 -14 1 -12 19 2 18 -1
24 -11 20 -9 -4 -11 0 -7 11 4 9 0 18 -9 22 -8 3 -18 16 -21 30 -4 13 -11 24
-16 24 -5 0 -7 9 -5 20 2 11 0 18 -4 15 -5 -3 -12 2 -15 11 -4 10 -2 13 7 8 6
-4 3 2 -7 14 -11 12 -21 20 -24 17 -6 -6 -71 68 -66 76 2 4 -4 13 -14 20 -16
13 -16 12 -2 -6 15 -20 14 -20 -8 -1 -23 20 -30 32 -12 21 6 -3 10 -2 10 3 0
11 -31 39 -37 34 -7 -5 -62 46 -56 52 4 3 -2 6 -11 6 -12 0 -16 5 -13 15 4 8
1 17 -5 21 -7 4 -8 3 -4 -4 11 -18 -10 -14 -25 5 -12 15 -12 16 1 8 8 -4 12
-4 7 0 -4 5 -17 10 -30 12 -12 2 -25 10 -30 18 -4 8 -15 15 -22 15 -8 0 -15 5
-15 10 0 6 -6 10 -14 10 -8 0 -17 4 -21 9 -6 10 90 5 108 -6 6 -4 7 -1 2 6 -5
10 9 12 63 9 39 -1 69 0 67 3 -2 3 36 18 86 33 49 15 89 32 89 37 0 4 7 6 15
3 8 -4 15 -2 15 4 0 9 47 24 82 26 9 1 20 5 24 9 5 4 0 5 -11 2 -18 -6 -18 -5
-2 5 9 6 22 8 29 4 6 -4 8 -3 4 4 -7 12 59 56 73 48 5 -4 13 -1 17 5 4 8 3 9
-4 5 -7 -4 -12 -4 -12 1 0 18 18 34 38 36 11 0 19 4 17 8 -7 10 43 52 54 45 6
-4 9 -1 5 7 -3 8 0 18 7 23 8 5 10 3 4 -7 -8 -12 -6 -12 8 0 18 15 23 26 7 16
-15 -9 -13 -2 16 49 15 26 30 43 36 40 7 -4 8 -2 4 4 -3 6 3 28 14 49 11 21
20 44 20 51 0 7 3 11 8 9 4 -3 7 11 8 31 1 21 4 51 7 67 3 17 6 38 6 48 1 11
6 15 12 11 8 -5 8 -1 0 13 -6 11 -8 23 -4 27 8 7 10 295 2 290 -9 -5 -31 104
-24 116 3 5 2 10 -3 10 -6 0 -15 12 -21 28 -6 15 -20 43 -31 62 -11 19 -18 41
-15 48 3 7 1 11 -4 7 -5 -3 -17 9 -25 26 -20 41 -20 45 2 28 15 -13 16 -12 3
3 -7 10 -18 15 -24 11 -6 -4 -8 0 -4 10 4 11 2 14 -9 10 -7 -3 -14 0 -14 6 0
6 -16 29 -35 50 -20 22 -34 45 -33 53 2 8 -4 12 -16 10 -13 -3 -17 1 -13 11 6
15 -25 52 -35 42 -8 -8 -68 54 -65 66 1 6 -9 18 -23 27 -18 13 -22 13 -15 3 6
-11 4 -13 -9 -8 -10 4 -20 7 -22 7 -3 0 -3 4 1 9 3 5 0 13 -6 17 -8 4 -9 3 -5
-4 13 -22 -7 -12 -61 29 -48 37 -71 61 -41 43 7 -5 8 -3 3 5 -4 8 -17 10 -32
6 -14 -3 -22 -2 -20 2 3 5 -6 13 -19 20 -13 6 -22 7 -18 2 8 -13 -19 -11 -59
6 -19 8 -37 11 -41 8 -3 -4 -6 -2 -6 4 0 6 -23 13 -50 17 -27 4 -50 11 -50 15
0 15 -52 23 -60 11 -5 -9 -9 -9 -14 -1 -4 6 -5 14 -3 19 3 4 -20 8 -51 9 -32
1 -68 4 -82 7 -13 3 -62 8 -109 11 -46 2 -86 6 -88 9 -2 2 12 14 31 26 20 12
36 26 36 31 0 6 4 8 9 5 5 -4 11 -3 13 2 4 11 73 62 83 62 4 0 1 -8 -6 -17
-11 -15 -10 -15 8 1 13 10 20 22 18 26 -7 11 30 41 40 33 4 -5 5 -3 2 3 -7 11
36 58 44 49 3 -3 19 9 35 27 16 17 23 28 17 24 -7 -4 -13 -3 -13 1 0 15 50 83
61 83 6 0 8 3 6 8 -7 10 19 32 29 24 4 -4 4 -2 0 5 -4 7 5 51 19 99 42 135 50
284 23 394 -29 119 -59 193 -87 216 -9 7 -11 16 -6 25 5 8 5 11 0 7 -11 -11
-38 29 -29 44 5 7 3 8 -6 3 -10 -6 -12 -4 -7 8 3 8 -1 21 -10 29 -9 7 -17 11
-17 8 -3 -9 -56 38 -56 49 0 6 -6 10 -12 8 -7 -1 -13 6 -13 15 0 10 -8 25 -18
35 -17 17 -18 17 -11 1 3 -10 11 -18 17 -18 6 0 7 -3 4 -7 -10 -9 -48 28 -40
40 4 7 0 8 -11 4 -13 -5 -17 -3 -13 7 4 10 0 12 -16 8 -12 -3 -19 -1 -14 3 9
10 -64 46 -77 38 -5 -4 -7 1 -3 10 3 9 3 16 -1 15 -17 -5 -73 13 -68 21 3 5
-3 7 -14 4 -12 -3 -20 0 -20 6 0 7 6 9 13 5 7 -4 9 -3 4 2 -5 5 -12 9 -15 9
-4 0 -13 4 -21 9 -10 7 -12 6 -6 -4 6 -10 4 -12 -9 -7 -10 4 -29 10 -42 13
-13 3 -21 10 -18 15 3 5 -3 6 -12 2 -12 -4 -15 -3 -10 5 5 8 2 10 -8 6 -9 -3
-38 -1 -65 6 -60 14 -408 19 -473 6 -27 -5 -48 -14 -48 -20 0 -6 -4 -5 -9 3
-6 8 -14 10 -22 5 -8 -5 -23 -10 -34 -11 -60 -8 -85 -15 -85 -24 0 -5 -11 -7
-26 -3 -19 5 -25 4 -20 -5 5 -7 -1 -11 -14 -11 -11 0 -23 -6 -26 -13 -3 -8
-17 -13 -33 -12 -21 1 -28 -2 -24 -12 3 -8 2 -13 -3 -11 -12 3 -74 -25 -74
-33 0 -4 -7 -9 -15 -13 -12 -4 -14 2 -12 29 1 27 6 34 17 29 11 -4 12 -2 3 7
-7 7 -8 20 -2 38 7 22 15 65 18 104 1 5 6 5 12 1 8 -5 9 -2 2 11 -6 9 -7 33
-3 54 3 20 7 108 8 196 1 152 -8 234 -36 323 -6 17 -9 32 -6 32 11 0 -74 149
-96 170 -12 10 -50 68 -50 75 0 4 8 1 18 -6 15 -13 16 -12 3 3 -7 10 -17 15
-21 13 -9 -6 -66 46 -63 56 1 4 -5 6 -15 5 -9 0 -16 5 -14 12 1 8 -2 11 -8 7
-13 -8 -52 4 -45 15 3 4 -1 8 -8 7 -34 -1 -48 4 -41 15 4 7 3 8 -5 4 -15 -9
-53 3 -46 15 3 5 -2 6 -11 2 -11 -4 -15 -2 -11 4 4 6 -3 8 -18 5 -16 -3 -25 0
-25 8 0 7 -8 10 -20 7 -10 -3 -20 -1 -22 5 -3 8 -66 16 -136 18 -7 0 -11 4 -8
8 2 4 -4 8 -14 8 -10 0 -16 -4 -13 -9 3 -5 -3 -7 -13 -3 -21 6 -113 19 -129
18 -31 -2 -103 -14 -120 -19 -30 -10 -37 -12 -75 -18 -19 -4 -40 -13 -47 -22
-7 -9 -19 -13 -28 -9 -11 4 -14 2 -9 -6 5 -7 0 -9 -14 -6 -14 4 -19 2 -16 -6
5 -12 -1 -15 -50 -19 -16 -1 -22 -7 -18 -16 4 -10 1 -13 -10 -8 -12 4 -14 1
-11 -13 4 -14 0 -18 -14 -16 -10 2 -21 -2 -25 -8 -4 -6 -11 -11 -15 -11 -5 0
-19 -10 -33 -22 -13 -13 -27 -24 -32 -24 -4 -1 -14 -2 -20 -3 -7 -1 -12 -11
-10 -24 3 -20 -6 -27 -30 -23 -4 0 -5 -6 -2 -14 4 -10 0 -15 -11 -15 -12 0
-16 -6 -12 -20 3 -13 0 -20 -9 -20 -8 0 -14 -5 -14 -11 0 -6 -6 -9 -14 -6 -8
3 -22 -4 -33 -15 -10 -12 -12 -18 -5 -14 6 4 12 2 12 -3 0 -6 -7 -11 -15 -11
-8 0 -17 -11 -21 -24 -6 -27 -58 -78 -69 -68 -3 3 -3 -2 1 -12 5 -12 2 -22 -9
-28 -10 -5 -17 -16 -17 -24 0 -9 -5 -12 -12 -8 -8 5 -9 0 -5 -15 4 -17 2 -21
-8 -17 -9 3 -12 0 -8 -10 3 -7 0 -14 -6 -14 -6 0 -11 -7 -11 -15 0 -9 -7 -18
-16 -22 -8 -3 -13 -11 -10 -18 2 -7 -4 -21 -15 -31 -10 -9 -19 -26 -19 -37 0
-12 -5 -17 -13 -14 -10 4 -13 -2 -9 -19 2 -14 0 -24 -7 -24 -7 0 -9 6 -5 13 4
6 4 9 -1 5 -4 -4 -9 -25 -10 -47 -2 -22 -6 -45 -10 -51 -9 -15 -25 -2 -25 19
0 10 -7 32 -15 47 -19 37 -38 131 -31 150 3 8 2 13 -3 9 -5 -3 -15 12 -21 32
-7 21 -16 42 -21 47 -4 5 -3 18 2 29 9 15 8 18 -2 12 -9 -6 -11 -2 -7 13 4 16
2 19 -10 15 -11 -5 -14 -2 -9 10 3 9 2 19 -3 22 -6 4 -10 15 -10 26 0 10 -4
19 -9 19 -13 0 -34 58 -27 75 3 9 2 13 -4 10 -6 -3 -10 -1 -10 5 0 6 -12 28
-26 50 -15 22 -24 46 -21 55 4 8 3 14 -1 12 -10 -3 -52 40 -52 54 0 5 -4 7
-10 4 -5 -3 -10 3 -10 14 0 12 -5 21 -11 21 -6 0 -9 6 -6 14 3 8 -4 22 -16 33
l-22 18 19 -22 c11 -13 15 -23 10 -23 -14 0 -35 40 -28 52 4 6 3 8 -3 5 -10
-6 -60 42 -56 54 1 3 -12 19 -29 35 -17 16 -28 23 -24 17 9 -16 1 -16 -25 -2
-11 5 -16 15 -13 21 4 7 3 8 -5 4 -6 -4 -14 0 -17 8 -3 9 -15 16 -26 16 -13 0
-18 5 -15 14 4 11 1 13 -10 9 -10 -4 -14 -2 -10 4 4 6 1 10 -6 10 -22 -2 -127
34 -122 42 2 5 -7 6 -22 3 -14 -3 -23 -1 -20 4 6 10 -53 16 -181 18 -46 0 -86
-3 -89 -8z m690 -3026 c-3 -11 0 -20 6 -20 7 0 8 -8 1 -24 -8 -22 3 -136 15
-156 2 -4 7 -35 10 -71 3 -35 10 -73 14 -84 5 -11 14 -33 20 -49 17 -40 78
-133 120 -181 32 -37 104 -95 116 -95 3 0 22 -7 43 -15 20 -9 56 -15 79 -14
23 2 45 0 48 -3 17 -16 120 32 181 85 30 26 86 115 137 217 43 87 107 252 107
275 0 14 22 94 38 135 3 10 7 5 12 -15 3 -16 11 -29 18 -28 6 2 11 -5 10 -15
-3 -35 2 -53 13 -46 8 4 9 0 4 -15 -4 -12 -2 -21 4 -21 6 0 10 -3 10 -7 -1 -5
0 -10 1 -13 1 -3 3 -12 5 -20 2 -8 10 -34 18 -57 9 -22 13 -44 10 -47 -4 -3 1
-6 10 -6 9 0 16 -3 15 -7 -4 -14 21 -73 30 -73 5 0 12 -10 15 -21 4 -14 11
-20 21 -16 11 4 14 0 11 -15 -3 -13 6 -31 25 -50 17 -16 30 -33 30 -36 0 -21
180 -186 180 -165 0 4 4 4 8 -2 20 -28 76 -44 167 -49 62 -3 113 10 143 37 22
20 22 20 36 1 8 -10 18 -16 22 -12 4 4 13 0 21 -10 12 -16 13 -15 6 3 -4 11
12 -1 36 -27 26 -27 49 -44 57 -41 10 4 12 0 8 -12 -6 -15 -3 -16 17 -10 21 7
22 6 10 -9 -8 -9 -11 -20 -7 -23 4 -4 12 -1 17 7 8 12 9 11 7 -5 -2 -11 2 -19
9 -18 6 1 17 -4 23 -12 7 -8 19 -15 27 -15 8 0 11 -5 7 -11 -4 -7 0 -9 14 -5
13 4 22 1 26 -9 3 -8 0 -15 -7 -15 -8 0 -7 -4 3 -9 8 -6 18 -7 22 -5 4 3 8 0
8 -7 0 -6 8 -9 20 -6 11 3 18 2 15 -3 -11 -17 49 -16 86 1 50 25 68 54 65 105
-2 44 -31 99 -46 89 -4 -3 -6 3 -4 12 3 10 -6 29 -19 43 -42 44 -89 82 -94 77
-3 -3 -19 10 -35 29 -31 34 -93 68 -108 59 -4 -3 -10 1 -13 9 -3 7 -26 19 -51
27 -50 14 -51 17 -36 69 24 81 40 249 30 316 l-7 48 37 -44 c21 -25 36 -48 34
-52 -2 -3 4 -9 15 -13 10 -3 22 -16 25 -28 7 -28 108 -133 161 -168 22 -15 56
-42 76 -60 20 -19 43 -36 50 -38 153 -45 239 -53 306 -29 18 7 35 9 38 6 3 -3
12 -34 21 -69 8 -35 19 -77 24 -94 5 -16 12 -50 15 -75 14 -109 17 -136 15
-147 -2 -23 -1 -57 5 -148 3 -49 5 -97 4 -105 0 -8 -2 -38 -3 -65 -1 -28 -6
-57 -11 -65 -5 -9 -4 -15 4 -18 8 -3 9 -7 3 -11 -5 -3 -12 -39 -15 -79 -4 -45
-2 -70 4 -67 10 7 -9 -43 -23 -59 -4 -5 -2 -16 5 -25 9 -11 9 -13 0 -8 -17 11
-27 -11 -13 -28 9 -11 9 -15 1 -15 -6 0 -11 -7 -11 -15 0 -8 4 -15 9 -15 5 0
3 -13 -5 -29 -13 -26 -23 -67 -27 -113 -1 -10 -5 -18 -9 -18 -4 0 -8 -10 -8
-22 0 -13 -4 -30 -10 -38 -5 -9 -5 -19 2 -27 7 -9 6 -14 -6 -19 -9 -3 -16 -15
-16 -26 0 -31 -22 -101 -37 -119 -19 -23 -16 -31 10 -24 21 6 21 5 -2 -8 -16
-10 -20 -16 -11 -19 8 -2 10 -9 6 -17 -5 -7 -15 -10 -23 -7 -12 5 -14 1 -10
-14 3 -12 1 -17 -5 -14 -5 3 -9 0 -7 -7 3 -27 -1 -40 -12 -33 -8 4 -8 0 0 -15
9 -16 9 -20 -1 -16 -7 2 -22 -7 -32 -22 -16 -22 -17 -25 -3 -20 11 4 14 2 10
-9 -3 -8 -11 -13 -18 -10 -9 3 -12 -5 -11 -25 2 -21 -2 -28 -13 -26 -10 1 -16
-6 -16 -19 0 -24 -23 -56 -36 -49 -4 3 -20 -14 -35 -37 -15 -24 -30 -45 -33
-48 -3 -3 -7 -12 -9 -20 -2 -8 -12 -20 -23 -28 -20 -14 -26 -42 -9 -42 15 0
12 -17 -4 -23 -7 -3 -13 0 -12 6 0 7 -3 13 -9 14 -13 4 -13 -30 0 -39 6 -4 -4
-8 -21 -8 -17 0 -37 -7 -44 -15 -7 -8 -9 -15 -5 -15 5 0 0 -9 -9 -19 -10 -11
-15 -25 -11 -31 5 -9 1 -10 -13 -6 -23 8 -54 -27 -46 -49 3 -7 0 -16 -7 -21
-8 -4 -10 -3 -5 4 4 7 3 12 -1 12 -14 0 -53 -30 -53 -41 0 -6 -7 -17 -15 -26
-8 -8 -13 -19 -10 -24 4 -5 1 -9 -4 -9 -6 0 -11 5 -11 12 0 6 -27 -16 -59 -50
-33 -33 -63 -57 -67 -54 -4 4 -5 -1 -1 -10 3 -10 0 -19 -9 -22 -9 -3 -12 -1
-9 4 3 6 1 10 -4 10 -6 0 -11 -5 -11 -11 0 -5 -4 -7 -10 -4 -6 4 -7 -1 -3 -11
4 -12 3 -15 -5 -10 -14 8 -55 -17 -45 -27 3 -4 -1 -7 -11 -7 -9 0 -15 -4 -11
-9 3 -6 -3 -15 -14 -20 -29 -16 -38 -13 -15 3 13 10 14 14 4 12 -30 -6 -50
-18 -50 -31 0 -8 -5 -17 -12 -21 -7 -4 -8 -3 -4 4 12 19 -10 13 -29 -8 -9 -10
-22 -18 -29 -17 -6 1 -10 -4 -8 -11 1 -6 -1 -11 -5 -11 -5 1 -11 0 -15 -1 -5
-1 -11 -3 -15 -4 -23 -6 -63 -30 -63 -38 0 -5 -4 -6 -10 -3 -5 3 -10 2 -10 -3
0 -6 -6 -9 -12 -9 -16 1 -145 -60 -153 -73 -3 -5 -11 -7 -18 -4 -7 2 -23 -5
-35 -16 -12 -12 -30 -23 -40 -25 -80 -19 -115 -32 -102 -38 8 -4 3 -5 -12 -3
-15 1 -25 0 -23 -5 10 -16 -17 -23 -107 -29 -9 -1 -24 -10 -34 -21 -19 -21
-34 -25 -34 -8 0 5 5 7 12 3 7 -4 8 -3 4 4 -7 12 -36 5 -36 -9 0 -5 -7 -9 -15
-9 -8 0 -15 -4 -15 -8 0 -4 -23 -7 -52 -6 -28 0 -79 -5 -112 -12 -34 -7 -62
-13 -64 -13 -28 -3 -81 -16 -95 -23 -13 -6 -23 -5 -34 4 -14 11 -17 11 -21 -1
-4 -11 -6 -11 -14 0 -8 12 -10 12 -15 0 -4 -10 -7 -11 -13 -1 -6 10 -17 10
-54 -2 -25 -8 -43 -11 -40 -7 7 12 -3 11 -26 -1 -15 -8 -18 -7 -15 2 3 8 -4
13 -20 13 -15 0 -25 -6 -25 -14 0 -11 -4 -9 -15 5 -14 18 -14 18 -15 0 0 -15
-3 -16 -14 -6 -10 7 -42 10 -91 8 -41 -2 -75 0 -75 3 0 4 -16 3 -35 -1 -24 -5
-35 -4 -36 4 0 6 -3 5 -6 -3 -5 -11 -7 -11 -14 0 -8 12 -11 11 -19 -1 -9 -13
-12 -13 -23 0 -6 8 -21 16 -32 17 -30 2 -114 14 -162 23 -24 4 -43 4 -43 0 0
-3 -7 -7 -15 -7 -8 0 -12 4 -9 9 3 4 -1 9 -8 10 -7 0 -17 2 -23 2 -5 1 -16 5
-22 9 -18 11 -92 28 -135 30 -16 1 -28 4 -28 8 0 10 -70 33 -92 31 -10 0 -18
3 -18 7 0 4 -6 9 -12 10 -42 6 -76 9 -96 10 -15 1 -26 9 -29 21 -4 15 -11 19
-24 15 -11 -4 -19 -2 -19 2 0 9 -59 34 -94 40 -12 2 -16 -1 -13 -11 4 -10 1
-13 -9 -9 -11 4 -12 9 -5 16 13 13 15 28 4 25 -9 -1 -32 7 -81 28 -18 8 -39
14 -47 14 -8 0 -15 5 -15 10 0 6 -12 10 -26 10 -18 0 -28 6 -31 21 -3 11 -11
18 -19 15 -7 -3 -16 -1 -20 5 -3 5 -15 7 -26 3 -17 -5 -20 -3 -15 10 4 10 1
16 -8 16 -8 0 -15 5 -15 10 0 6 -7 10 -15 10 -8 0 -15 4 -15 9 0 5 -8 12 -17
15 -22 8 -56 28 -75 44 -8 6 -18 10 -21 7 -4 -3 -5 -2 -2 2 8 10 -46 55 -61
49 -8 -3 -14 -2 -14 2 0 4 -17 18 -38 32 -20 13 -59 46 -86 72 -27 26 -52 48
-57 48 -7 0 -63 56 -131 132 -16 18 -55 70 -86 116 -30 45 -60 82 -65 82 -6 0
-7 3 -4 6 4 4 -2 19 -12 33 -75 107 -174 382 -190 531 -15 137 -11 350 9 460
6 30 12 73 15 95 2 22 7 51 10 65 3 14 8 43 10 64 3 21 8 42 10 46 2 4 7 21
10 38 11 64 35 174 40 181 2 4 9 36 14 72 6 35 27 111 46 169 20 58 38 116 41
130 2 14 9 35 14 48 6 12 14 32 18 45 17 44 77 162 87 169 15 11 27 10 20 -2
-4 -6 -1 -18 7 -27 11 -14 10 -15 -10 -9 -17 6 -22 3 -22 -11 0 -28 61 -115
99 -140 89 -60 216 -67 313 -16 81 41 173 104 171 114 -2 5 6 9 18 9 12 0 37
16 56 35 19 19 39 35 43 35 5 0 12 9 15 20 4 11 11 18 16 15 5 -4 13 4 18 17
6 13 10 19 10 13 1 -5 17 8 37 29 21 22 33 44 30 52 -3 8 -2 13 3 10 12 -8 33
19 23 29 -4 5 -2 5 5 1 12 -6 63 51 63 71 0 6 9 13 20 16 16 4 18 2 11 -11
-17 -33 -22 -93 -10 -108 10 -12 9 -13 -5 -8 -11 4 -16 1 -16 -10 0 -9 -4 -16
-8 -16 -5 0 -7 -16 -6 -35 2 -19 -1 -35 -7 -35 -11 0 0 -53 13 -59 5 -1 1 -9
-9 -17 -10 -7 -13 -14 -7 -14 7 0 14 -9 17 -20 3 -11 2 -18 -3 -15 -4 2 -6
-13 -5 -34 2 -34 10 -58 42 -116 6 -11 16 -34 23 -51 18 -50 90 -117 151 -139
30 -11 59 -20 66 -20 6 0 14 -3 18 -7 8 -8 100 16 156 41 126 56 243 183 341
371 29 57 60 112 68 122 8 10 14 22 13 26 0 4 5 18 13 32 7 14 25 52 39 84 20
46 23 61 13 68 -10 6 -8 8 5 8 9 0 17 5 17 11 0 5 4 8 9 5 5 -3 7 -15 4 -26z
m2959 -1418 c21 -13 47 -37 59 -53 11 -16 27 -29 35 -29 8 0 13 -3 12 -7 -1
-5 4 -21 11 -37 7 -19 8 -33 2 -39 -12 -12 -2 -38 21 -55 17 -12 17 -15 1 -45
-9 -18 -18 -36 -18 -42 -1 -5 -3 -13 -5 -17 -1 -5 -3 -11 -4 -15 -1 -5 -8 -18
-15 -31 -7 -13 -10 -30 -7 -38 3 -8 1 -14 -4 -14 -5 0 -7 -7 -4 -15 5 -11 2
-14 -12 -9 -11 4 -16 3 -12 -1 5 -5 -1 -14 -12 -22 -11 -8 -20 -20 -20 -26 0
-7 -22 -31 -48 -54 -36 -31 -61 -43 -96 -48 -26 -4 -50 -14 -53 -22 -4 -9 -15
-12 -34 -9 -16 2 -29 0 -29 -5 0 -13 -38 -11 -80 4 l-36 12 16 44 15 44 70 1
c65 1 73 3 100 32 43 44 56 74 51 117 -5 41 -44 100 -77 117 -19 11 -18 12 12
45 20 21 48 38 78 45 55 14 71 26 71 52 0 17 -5 20 -30 15 -19 -4 -34 -1 -44
8 -19 19 -46 9 -46 -17 0 -17 -3 -18 -15 -8 -12 10 -18 10 -31 0 -18 -16 -67
-23 -59 -9 9 13 16 48 20 96 2 23 6 46 9 51 3 5 42 8 88 8 68 -1 90 -5 120
-24z m-5255 -185 c11 -11 24 -177 14 -177 -2 0 -19 9 -38 21 -18 12 -40 19
-48 16 -7 -3 -15 -1 -17 4 -2 6 -20 11 -40 12 -20 0 -34 5 -31 10 3 5 -4 4
-15 -2 -20 -11 -39 -48 -29 -57 6 -7 39 -8 57 -2 8 3 12 3 8 1 -18 -10 -6 -23
16 -17 18 4 27 1 35 -14 6 -11 8 -22 5 -25 -3 -3 -3 -11 1 -17 6 -9 10 -9 16
1 6 10 9 10 9 2 0 -19 -20 -26 -37 -12 -12 11 -17 11 -27 -2 -6 -9 -21 -19
-34 -23 -20 -7 -21 -10 -10 -24 10 -12 10 -14 1 -8 -7 4 -13 3 -13 -3 0 -5 9
-13 20 -16 14 -4 20 -15 20 -33 l-1 -27 -14 30 c-7 17 -14 24 -14 17 -1 -7 -5
-11 -10 -7 -6 3 -6 -6 -1 -25 5 -16 6 -30 4 -30 -8 0 29 -37 71 -70 28 -22 46
-29 62 -25 13 3 23 1 23 -4 0 -14 72 -3 81 11 10 15 10 15 37 -51 16 -40 19
-58 11 -68 -6 -7 -15 -10 -20 -7 -5 3 -9 0 -9 -7 0 -10 -3 -10 -11 -2 -7 7
-20 8 -33 3 -21 -7 -58 -6 -140 4 -90 12 -188 87 -236 181 -36 71 -36 188 2
265 34 71 89 129 158 168 48 27 62 31 110 27 30 -3 60 -11 67 -18z m5061 -126
c37 -43 41 -49 35 -55 -4 -3 -1 -6 5 -6 6 0 16 8 22 18 10 15 11 14 7 -5 -3
-13 -1 -23 5 -23 5 0 6 -5 3 -10 -4 -6 -10 -8 -15 -5 -10 6 -35 -34 -26 -42 3
-3 -2 -12 -12 -20 -16 -12 -16 -13 3 -7 17 4 16 3 -3 -8 -12 -8 -19 -18 -15
-23 4 -6 -1 -2 -13 8 -11 9 -23 15 -26 12 -3 -3 -14 -7 -24 -9 -11 -3 -28 -7
-39 -11 -12 -4 -15 -3 -9 2 6 4 10 24 8 43 -1 19 2 40 7 46 5 7 12 35 16 63 3
28 10 51 15 51 5 0 6 4 3 10 -12 20 30 -4 53 -29z m-5032 -152 c2 -13 7 -40
10 -59 2 -19 7 -43 10 -52 4 -13 0 -18 -15 -18 -11 0 -23 -4 -26 -10 -3 -5 3
-10 14 -10 11 0 22 -4 25 -8 6 -10 -21 -8 -47 3 -9 4 -23 3 -30 -3 -16 -13
-57 3 -57 23 0 23 -1 29 -11 48 -7 11 -6 17 1 17 7 0 10 6 7 13 -2 6 9 20 25
29 15 10 28 22 28 28 0 5 9 10 19 10 11 0 23 5 26 11 9 13 14 7 21 -22z"/>
<path d="M2698 4073 c-10 -2 -18 -8 -18 -13 0 -12 -37 -19 -48 -8 -7 7 -20 3
-41 -11 -38 -27 -111 -58 -93 -40 6 7 12 18 12 24 -1 5 -9 0 -19 -13 -11 -12
-25 -20 -33 -17 -17 6 -43 -15 -52 -43 -4 -12 -14 -22 -22 -22 -8 0 -17 -7
-20 -15 -3 -8 -14 -17 -25 -20 -10 -4 -19 -15 -19 -25 0 -10 -5 -22 -10 -25
-8 -5 -7 -12 2 -23 10 -14 8 -13 -8 1 -18 15 -22 15 -27 4 -3 -8 0 -20 6 -27
9 -10 9 -11 0 -6 -6 3 -14 2 -18 -4 -3 -5 0 -10 8 -10 15 0 29 -29 31 -65 1
-10 13 -26 28 -34 24 -14 30 -13 83 14 111 59 131 70 162 93 17 12 36 22 43
22 6 0 8 5 4 12 -4 7 -3 8 4 4 6 -4 31 0 55 8 24 8 63 15 87 14 24 0 46 5 50
12 5 7 15 10 25 6 10 -3 24 -1 31 5 12 10 13 8 8 -6 -6 -15 -4 -16 15 -6 12 7
26 9 31 6 5 -3 13 3 19 12 6 10 11 14 11 9 0 -5 9 -1 20 9 21 19 28 75 10 75
-5 0 -10 -11 -10 -25 0 -14 -4 -25 -10 -25 -5 0 -10 9 -10 19 0 11 -3 21 -7
24 -5 2 -2 2 5 1 6 -2 12 2 12 9 0 14 -54 49 -63 41 -3 -3 -16 3 -28 15 -13
12 -30 21 -38 22 -9 0 -31 2 -48 3 -18 2 -30 0 -27 -5 6 -10 -25 -7 -44 4 -7
5 -10 13 -7 18 4 5 5 8 3 8 -2 -1 -11 -3 -20 -6z"/>
<path d="M5460 3588 c0 -5 -4 -6 -10 -3 -16 10 -131 -16 -182 -41 -27 -13 -48
-20 -48 -17 0 3 -8 -4 -19 -15 -10 -12 -23 -22 -29 -22 -20 0 -102 -83 -102
-104 0 -10 -3 -17 -6 -13 -8 8 -25 -10 -51 -55 -15 -25 -18 -38 -10 -38 8 0 8
-3 1 -8 -22 -15 -54 -94 -59 -149 -16 -151 11 -406 46 -449 5 -6 6 -13 3 -16
-3 -3 4 -22 16 -42 11 -20 20 -42 20 -49 0 -7 23 -48 51 -92 50 -78 91 -125
109 -125 4 0 10 -3 12 -7 4 -11 78 -57 113 -71 47 -19 74 -24 155 -27 183 -8
358 59 480 186 53 55 90 99 90 107 0 5 9 17 20 27 11 10 17 22 14 26 -3 5 0 9
7 9 7 0 9 3 6 6 -4 4 2 19 11 33 10 14 24 46 32 71 7 25 18 51 24 59 7 10 5
17 -9 28 -20 15 -20 15 2 10 20 -4 21 -2 19 57 -2 35 -6 68 -10 74 -3 6 -2 13
2 16 12 7 14 84 2 91 -5 3 -7 12 -3 20 3 9 -1 15 -11 15 -19 0 -21 30 -3 49 7
8 7 11 1 8 -7 -4 -19 7 -28 27 -18 38 -20 56 -7 56 7 0 8 15 2 38 -1 1 -12 -5
-26 -14 -26 -17 -42 -14 -31 5 4 6 13 8 20 5 7 -3 18 1 24 9 9 11 6 18 -13 35
-13 12 -22 28 -19 35 3 8 -2 20 -10 27 -9 7 -13 17 -9 23 4 7 0 8 -13 3 -10
-4 -15 -4 -11 0 11 11 -23 43 -39 37 -8 -3 -22 -2 -31 2 -75 33 -86 2 -22 -61
27 -26 49 -54 49 -61 0 -6 10 -19 22 -27 12 -9 17 -16 10 -16 -9 0 -9 -5 2
-22 15 -25 48 -121 45 -134 -4 -21 2 -45 9 -40 8 5 10 -27 13 -195 1 -88 -2
-114 -20 -154 -12 -26 -19 -50 -16 -53 3 -3 -2 -14 -12 -24 -9 -10 -13 -18 -9
-18 17 0 -62 -101 -126 -162 -49 -46 -85 -71 -115 -80 -23 -7 -43 -18 -43 -26
0 -7 -5 -10 -11 -7 -6 4 -17 -1 -24 -11 -10 -13 -14 -15 -15 -5 0 10 -9 12
-36 6 -49 -9 -73 -25 -66 -44 4 -11 -2 -10 -24 6 -36 25 -94 35 -94 16 0 -7
-5 -13 -10 -13 -6 0 -10 6 -8 14 3 15 0 16 -29 15 -16 0 -15 -2 2 -10 17 -8
17 -9 -5 -4 -14 2 -31 5 -39 5 -10 0 -11 3 -2 14 13 16 -3 25 -56 32 -22 3
-35 -1 -41 -12 -6 -11 -11 -13 -16 -5 -4 6 0 14 8 17 20 8 21 24 1 24 -10 0
-15 7 -13 18 2 12 -3 16 -19 15 -14 -2 -24 4 -28 18 -5 13 -12 18 -22 14 -14
-5 -14 -3 -2 11 13 16 11 17 -13 12 -22 -4 -26 -2 -19 10 11 20 -17 52 -29 33
-5 -9 -9 -7 -13 8 -3 14 0 21 9 21 8 0 11 6 7 16 -3 8 -12 13 -20 9 -11 -3
-13 -1 -10 10 4 8 -1 19 -11 24 -15 9 -15 10 3 11 18 1 17 3 -9 24 -27 22 -27
24 -10 35 19 11 19 11 0 26 -10 8 -23 12 -29 8 -6 -3 -7 -1 -3 6 4 6 11 9 15
7 4 -3 8 1 8 9 0 8 -4 15 -8 15 -5 0 -16 12 -25 26 -15 22 -15 27 -3 35 12 8
11 11 -4 20 -17 10 -17 13 -3 34 13 19 13 27 3 37 -15 16 -20 118 -5 118 6 0
5 6 -3 16 -10 13 -10 17 2 26 11 7 11 11 1 15 -10 4 -10 10 2 28 11 17 12 25
4 27 -7 3 -8 9 -3 19 5 8 11 25 12 39 2 14 9 36 16 49 9 19 9 25 0 28 -19 7
-17 63 2 63 9 0 21 11 27 25 6 14 17 25 24 25 7 0 18 9 23 19 13 23 127 90
191 111 25 9 74 17 109 18 35 1 71 6 80 11 9 5 22 6 30 3 8 -2 11 0 8 5 -4 6
10 5 31 -3 20 -7 48 -10 61 -7 17 4 22 2 17 -6 -5 -7 2 -11 21 -11 15 0 50
-12 77 -26 31 -16 51 -22 55 -15 9 13 33 -2 29 -19 -5 -20 44 -19 66 2 23 21
36 23 36 6 0 -6 3 -8 6 -5 13 12 -17 35 -38 29 -13 -3 -19 -1 -15 5 4 6 1 11
-6 10 -41 -1 -50 3 -36 19 11 13 9 14 -15 8 -23 -5 -27 -4 -24 12 2 14 -4 20
-21 22 -27 4 -52 -15 -35 -26 14 -9 14 -41 -1 -36 -14 6 -18 51 -5 59 18 11
10 23 -15 23 -25 0 -31 -8 -18 -22 11 -10 12 -37 2 -30 -5 3 -7 9 -4 14 3 5
-5 12 -19 16 -14 3 -25 9 -24 13 2 16 -5 17 -47 11 -25 -4 -45 -3 -45 2 0 4
-27 7 -60 7 -33 -1 -60 -6 -60 -11z"/>
<path d="M2750 3540 c-8 -6 -28 -7 -44 -4 -18 4 -26 2 -22 -4 3 -5 -6 -13 -19
-16 -14 -4 -23 -11 -20 -16 3 -5 1 -11 -5 -15 -5 -3 -10 1 -10 9 0 8 5 18 10
21 18 11 10 24 -12 20 -45 -6 -87 -26 -82 -40 6 -16 -12 -29 -21 -15 -9 15
-28 12 -22 -4 6 -16 -19 -30 -35 -20 -6 4 -5 -2 1 -15 11 -20 10 -20 -13 -9
-35 15 -61 -4 -43 -33 14 -23 -3 -40 -34 -32 -21 6 -52 -14 -43 -28 3 -5 -2
-6 -10 -3 -10 4 -16 1 -16 -9 0 -9 -8 -21 -17 -26 -16 -9 -16 -12 -3 -21 13
-9 11 -13 -12 -31 -16 -12 -25 -26 -21 -34 3 -9 -1 -15 -10 -15 -10 0 -13 -7
-10 -20 3 -11 9 -18 12 -15 4 2 8 -3 8 -11 0 -8 -6 -13 -13 -10 -8 3 -16 0
-20 -6 -4 -6 -3 -8 3 -5 17 11 22 -17 8 -37 -13 -17 -13 -17 -18 1 -3 10 -4
-3 -2 -29 2 -29 -1 -48 -7 -48 -5 0 -8 -7 -4 -15 3 -8 1 -15 -4 -15 -6 0 -10
-20 -10 -45 0 -25 5 -45 11 -45 6 0 7 -5 2 -12 -4 -7 -8 -41 -9 -76 -1 -50 1
-62 12 -58 8 3 14 1 14 -3 0 -5 -6 -11 -12 -14 -10 -4 -10 -7 0 -18 6 -7 12
-21 12 -32 0 -10 4 -16 8 -13 4 2 8 -7 8 -22 -1 -74 178 -310 271 -358 21 -10
42 -25 46 -32 5 -7 13 -10 18 -6 6 3 18 -1 27 -9 58 -49 331 -72 432 -35 49
18 130 67 130 78 0 6 5 10 10 10 37 0 190 237 190 294 0 7 8 28 17 47 10 19
18 55 18 81 0 25 3 44 6 42 12 -7 20 126 15 236 -6 127 -5 121 -41 195 -16 32
-30 66 -32 74 -1 9 -9 21 -17 27 -9 6 -16 17 -16 23 0 7 -4 9 -10 6 -5 -3 -10
0 -10 7 0 16 -65 80 -113 112 -56 37 -139 71 -190 79 -33 5 -38 4 -33 -10 5
-13 4 -14 -9 -3 -8 7 -13 16 -10 19 2 4 -2 8 -10 8 -8 0 -15 -4 -15 -9 0 -5
-5 -6 -10 -3 -6 4 -8 10 -6 14 3 4 -17 8 -44 9 -27 0 -52 -3 -55 -9 -4 -5 -14
-9 -23 -8 -14 0 -13 2 3 9 13 6 15 9 5 9 -8 0 -22 -4 -30 -9z m180 -64 c78 -5
123 -18 187 -53 77 -41 113 -67 113 -80 0 -7 9 -13 20 -13 13 0 22 -9 26 -25
6 -23 15 -30 37 -26 4 0 7 -12 7 -29 0 -16 -4 -30 -10 -30 -5 0 -10 -9 -10
-19 0 -11 5 -23 10 -26 6 -3 10 -16 11 -28 0 -12 3 -16 6 -9 2 6 9 12 15 12 6
0 4 -8 -5 -18 -20 -22 -22 -42 -4 -42 8 0 8 -3 -2 -9 -12 -8 -12 -12 2 -26 10
-9 17 -22 16 -28 0 -8 -2 -8 -6 1 -2 6 -9 10 -13 7 -5 -3 -7 -12 -4 -20 4 -8
10 -12 15 -9 13 8 11 -10 -2 -23 -6 -6 -8 -17 -3 -24 12 -21 10 -108 -3 -113
-9 -4 -9 -12 0 -36 10 -25 9 -33 -3 -40 -13 -9 -13 -11 0 -20 11 -7 11 -10 2
-10 -7 0 -11 -4 -7 -9 3 -5 -4 -16 -16 -24 -15 -11 -19 -21 -14 -36 5 -15 2
-21 -9 -21 -20 0 -20 -9 1 -32 10 -12 12 -18 4 -18 -7 0 -9 -5 -6 -10 4 -6 3
-10 -2 -9 -18 3 -33 -2 -33 -11 0 -5 7 -7 14 -4 13 5 13 2 3 -20 -13 -27 -27
-34 -27 -13 0 8 -3 7 -10 -3 -6 -10 -5 -17 5 -22 7 -5 11 -17 8 -28 -6 -22
-23 -28 -23 -8 0 8 -6 7 -16 -4 -15 -14 -15 -18 1 -42 15 -23 16 -26 1 -26 -9
0 -13 6 -10 14 12 31 -34 12 -50 -20 -11 -25 -20 -31 -36 -27 -16 4 -19 2 -14
-11 4 -11 1 -16 -10 -16 -21 0 -21 -16 0 -28 12 -7 13 -11 4 -17 -6 -4 -17 -2
-23 4 -17 17 -29 14 -60 -15 -15 -14 -31 -22 -36 -19 -5 3 -12 1 -16 -5 -3 -5
-14 -10 -23 -10 -15 0 -15 2 -2 10 13 9 13 11 0 19 -20 14 -32 3 -25 -22 6
-21 5 -21 -9 -4 -11 15 -22 17 -48 12 -18 -4 -42 -14 -53 -21 -25 -18 -36 -18
-29 1 4 8 13 15 21 15 8 0 11 5 8 10 -5 8 -11 8 -20 0 -8 -7 -15 -7 -19 -1 -4
5 -14 10 -24 10 -52 3 -106 11 -111 18 -8 11 -53 34 -73 37 -49 7 -225 217
-240 286 -3 14 -12 50 -21 81 -15 57 -17 205 -2 262 5 17 3 33 -5 42 -11 13
-10 14 1 10 11 -4 15 3 17 24 1 16 9 48 17 71 8 23 12 46 9 51 -3 5 -1 9 4 9
6 0 15 12 21 28 15 39 31 61 78 112 44 46 58 88 26 76 -17 -7 -33 9 -33 32 0
9 8 7 25 -7 28 -21 80 -22 80 -1 0 7 6 15 13 18 6 2 12 -1 12 -7 0 -8 11 -6
30 4 33 17 36 25 18 44 -8 8 -3 7 12 -2 17 -11 30 -13 40 -7 8 5 25 10 38 10
12 0 22 4 22 8 0 4 12 7 28 6 15 0 36 2 47 6 11 4 33 3 50 -1 16 -5 59 -10 95
-13z"/>
<path d="M2802 3298 c-9 -4 -32 -7 -49 -7 -28 -1 -32 -4 -30 -23 2 -19 -3 -23
-28 -23 -16 0 -37 -4 -45 -10 -25 -16 -71 -76 -65 -85 3 -4 -2 -11 -11 -14 -9
-3 -14 -13 -10 -21 3 -8 -2 -22 -12 -31 -9 -9 -16 -27 -17 -39 0 -12 -7 -30
-15 -40 -13 -17 -13 -18 0 -13 11 4 15 -2 16 -18 1 -17 -3 -24 -17 -24 -10 0
-19 -4 -19 -10 0 -5 5 -10 11 -10 8 0 8 -4 2 -12 -5 -7 -10 -28 -11 -45 -2
-26 2 -33 17 -33 10 0 22 -7 25 -16 8 -22 8 -26 -4 -19 -5 3 -10 -1 -10 -9 0
-8 5 -18 10 -21 6 -4 8 -10 5 -15 -3 -5 3 -13 12 -19 10 -6 14 -11 10 -11 -4
0 2 -10 14 -22 11 -13 32 -38 46 -55 14 -18 29 -31 33 -28 4 3 10 -2 13 -10 4
-8 25 -24 49 -37 35 -19 59 -23 128 -23 75 1 93 4 151 33 84 41 126 88 185
212 22 45 26 70 27 140 1 47 -1 99 -4 115 -6 33 -29 75 -41 75 -5 0 -8 7 -8
15 0 8 -10 20 -22 26 -13 7 -33 23 -45 36 -12 12 -27 23 -33 23 -5 0 -10 4
-10 10 0 14 -52 38 -69 32 -8 -3 -11 0 -7 7 10 16 0 14 -18 -5 -15 -14 -16
-13 -16 6 0 17 -4 21 -20 17 -11 -3 -18 -1 -15 3 6 10 -78 8 -103 -2z m249
-231 c48 -32 63 -67 49 -116 -32 -120 -209 -102 -210 22 0 49 13 73 53 97 42
26 67 25 108 -3z"/>
<path d="M5450 3361 c0 -5 -9 -11 -21 -14 -12 -3 -18 -10 -14 -16 3 -6 1 -11
-4 -11 -6 0 -11 5 -11 11 0 8 -4 9 -13 0 -8 -6 -17 -8 -20 -5 -8 9 -45 -16
-109 -73 -71 -62 -110 -112 -103 -133 3 -9 -1 -24 -8 -34 -20 -28 -3 -173 29
-239 60 -125 94 -163 183 -205 65 -31 75 -33 161 -34 82 -1 128 21 207 100 64
65 111 141 93 152 -8 5 -6 12 5 24 9 9 21 14 26 10 11 -6 7 62 -4 73 -4 3 -2
12 4 20 9 10 7 13 -8 13 -15 0 -20 7 -20 30 0 18 4 27 11 23 7 -4 7 -1 -1 8
-6 8 -13 28 -15 44 -1 17 -8 29 -14 28 -7 -1 -9 8 -6 22 3 16 -1 27 -11 31 -9
3 -14 11 -11 18 3 7 -16 33 -42 59 -37 38 -50 45 -64 37 -26 -14 -54 -2 -39
16 6 7 7 19 3 25 -5 9 -11 7 -21 -6 -7 -11 -13 -14 -13 -9 0 14 -74 39 -88 30
-6 -3 -22 -2 -36 4 -14 5 -26 6 -26 1z m-34 -265 c28 -28 34 -42 34 -76 0 -84
-97 -139 -166 -94 -29 20 -54 63 -54 96 0 29 32 78 62 94 43 24 87 17 124 -20z"/>
<path d="M4008 3135 c-2 -2 -19 -7 -37 -10 -19 -3 -39 -9 -45 -13 -6 -3 -17
-7 -25 -9 -20 -3 -60 -55 -54 -70 3 -6 12 -9 21 -5 15 5 15 4 0 -12 -22 -22
-23 -30 -2 -22 14 5 15 4 4 -9 -11 -13 -9 -20 16 -46 56 -59 66 -61 279 -56
69 1 85 19 48 52 -15 13 -34 22 -40 20 -7 -2 -13 1 -13 8 0 7 -8 3 -17 -8 -14
-19 -15 -19 -9 -1 6 18 2 19 -83 13 -56 -4 -92 -3 -96 3 -4 6 -11 8 -16 5 -16
-11 -9 22 9 37 35 31 105 49 172 45 63 -3 110 7 110 24 0 5 -22 20 -50 34 -36
18 -48 21 -44 10 4 -8 2 -15 -4 -15 -6 0 -12 6 -14 13 -5 13 -67 17 -65 3 1
-5 -4 -11 -12 -14 -8 -2 -11 0 -7 6 6 9 -18 25 -26 17z"/>
<path d="M4166 2692 c-9 -15 5 -51 23 -55 13 -4 13 -5 1 -6 -12 -1 -16 -15
-18 -62 -2 -53 1 -64 20 -81 l23 -20 -22 6 c-13 4 -23 4 -24 -1 0 -4 -2 -18
-5 -30 -2 -13 0 -23 6 -23 6 0 6 -10 -1 -27 -5 -15 -8 -38 -4 -50 3 -13 1 -23
-5 -23 -5 0 -10 -4 -10 -10 0 -5 7 -10 16 -10 11 0 14 -5 10 -16 -3 -9 -6 -18
-6 -20 0 -3 -4 -2 -10 1 -5 3 -10 -3 -10 -14 0 -27 -11 -52 -20 -46 -4 2 -5
-7 -2 -21 3 -19 7 -22 13 -12 7 10 9 10 9 0 0 -7 -7 -15 -15 -18 -8 -4 -13
-10 -10 -14 3 -4 -4 -10 -15 -13 -14 -4 -18 -10 -13 -23 4 -12 3 -15 -5 -10
-7 4 -12 2 -12 -5 0 -10 -3 -10 -12 -1 -7 7 -22 12 -35 12 -25 0 -38 19 -52
76 -5 22 -15 59 -22 84 -18 70 -19 85 -20 240 -1 126 -4 147 -19 162 -13 13
-20 14 -23 5 -3 -7 -6 -4 -6 6 -1 18 -9 21 -28 9 -19 -12 -27 -81 -12 -108 10
-19 9 -26 -1 -39 -11 -13 -10 -18 6 -30 16 -13 17 -14 2 -9 -12 4 -18 1 -18
-9 0 -9 4 -18 8 -21 4 -2 7 -22 5 -44 -2 -37 -1 -39 25 -34 l26 5 -25 -24
c-27 -25 -29 -51 -8 -107 6 -15 10 -28 9 -30 -1 -2 6 -14 14 -28 11 -15 12
-24 5 -24 -8 0 -8 -4 -1 -12 6 -7 11 -16 11 -20 1 -5 13 -26 29 -47 30 -44
118 -91 170 -91 49 0 113 89 116 161 0 20 4 35 9 32 8 -5 9 0 11 74 0 29 5 53
9 53 4 0 8 21 7 48 0 26 2 97 5 159 5 119 0 133 -48 140 -11 2 -26 8 -33 14
-7 5 -15 6 -18 1z"/>
</g>
</svg>
